<svg xmlns="http://www.w3.org/2000/svg" width="600" height="900" viewBox="0 0 600 900"><defs><linearGradient id="sky" x2="0" y2="1"><stop stop-color="#b3ccc7"/><stop offset=".7" stop-color="#e4eeea"/><stop offset="1" stop-color="#89aaa1"/></linearGradient><linearGradient id="stone" x2=".7" y2="1"><stop stop-color="#4a756e"/><stop offset="1" stop-color="#214642"/></linearGradient><linearGradient id="mist" x2="0" y2="1"><stop stop-color="#e4e6ce" stop-opacity="0"/><stop offset=".5" stop-color="#e4e6ce" stop-opacity=".75"/><stop offset="1" stop-color="#e4e6ce" stop-opacity="0"/></linearGradient><filter id="paper"><feTurbulence type="fractalNoise" baseFrequency=".7" numOctaves="3" stitchTiles="stitch"/><feColorMatrix type="saturate" values="0"/><feComponentTransfer><feFuncA type="linear" slope=".1"/></feComponentTransfer><feBlend in="SourceGraphic" mode="multiply"/></filter></defs><g filter="url(#paper)"><path fill="url(#sky)" d="M0 0h600v900H0z"/><circle cx="399" cy="157" r="57" fill="#e7e5cc"/><circle cx="399" cy="157" r="67" fill="none" stroke="#e6ddaf" opacity=".35"/>
<path d="M-30 500Q10 325 72 292L105 210 143 278 164 269 214 407 265 344 310 425 357 317 391 291 411 227 441 271 470 250 510 401 554 335 600 389V900H0Z" fill="#a9c4bb"/>
<path d="M-40 567 45 392 78 359 118 440 143 386 178 491 234 456 273 481 318 557 354 439 391 402 423 337 451 405 490 388 537 489 570 440 640 509V900H0Z" fill="#7fa89d"/>
<path d="m49 400 29-41 40 81-35-23-14 76m354-156-22 108 30 63-14-114m49-6-3 103 28 70" fill="none" stroke="#c0ccac" stroke-width="2" opacity=".5"/>
<path d="M0 520Q169 460 306 523T600 507V646Q400 599 273 643T0 630Z" fill="url(#mist)"/>
<path d="M-20 723 9 581 50 545 87 477 105 529 136 538 148 575 194 622 223 609 257 701 300 734 344 713 380 743 398 818 442 841 600 815V900H0Z" fill="url(#stone)"/>
<path d="m9 581 41-36 37-68-9 91-21 24-16 80m64-143-5 74 30 50m6-115-8 51 28 32-9 63m47-62-11 73 43 46m31-40-17 41 29 37" fill="none" stroke="#779886" stroke-width="2"/>
<path d="M600 566 571 579 550 618 507 633 478 703 451 720 473 783 524 809 600 788Z" fill="#507e70"/>
<path d="m550 618-14 63-27 19-8 42m-28-14 50 49 77-16" fill="none" stroke="#9aae8d"/>
<path d="M298 570Q499 572 418 625T412 696Q427 708 467 714" fill="none" stroke="#d2dec4" stroke-width="3" opacity=".65"/>
<path d="m43.8 740.6 -4 13 7 19 -2 11" fill="none" stroke="#8aa18a" opacity=".28" stroke-width=".8"/><path d="m45.8 821.3 -4 13 7 19 -2 11" fill="none" stroke="#8aa18a" opacity=".28" stroke-width=".8"/><path d="m124.5 709.9 -4 13 7 19 -2 11" fill="none" stroke="#567b6c" opacity=".28" stroke-width=".8"/><path d="m136.4 875.3 -4 13 7 19 -2 11" fill="none" stroke="#8aa18a" opacity=".28" stroke-width=".8"/><path d="m59.4 857.5 -4 13 7 19 -2 11" fill="none" stroke="#8aa18a" opacity=".28" stroke-width=".8"/><path d="m72.8 675.4 -4 13 7 19 -2 11" fill="none" stroke="#567b6c" opacity=".28" stroke-width=".8"/><path d="m83.1 826.8 -4 13 7 19 -2 11" fill="none" stroke="#567b6c" opacity=".28" stroke-width=".8"/><path d="m100.0 720.5 -4 13 7 19 -2 11" fill="none" stroke="#adba94" opacity=".28" stroke-width=".8"/><path d="m17.3 751.2 -4 13 7 19 -2 11" fill="none" stroke="#adba94" opacity=".28" stroke-width=".8"/><path d="m64.3 650.1 -4 13 7 19 -2 11" fill="none" stroke="#adba94" opacity=".28" stroke-width=".8"/><path d="m164.9 803.2 -4 13 7 19 -2 11" fill="none" stroke="#adba94" opacity=".28" stroke-width=".8"/><path d="m171.3 763.0 -4 13 7 19 -2 11" fill="none" stroke="#adba94" opacity=".28" stroke-width=".8"/><path d="m75.5 723.6 -4 13 7 19 -2 11" fill="none" stroke="#567b6c" opacity=".28" stroke-width=".8"/><path d="m76.7 732.5 -4 13 7 19 -2 11" fill="none" stroke="#8aa18a" opacity=".28" stroke-width=".8"/><path d="m103.2 666.6 -4 13 7 19 -2 11" fill="none" stroke="#567b6c" opacity=".28" stroke-width=".8"/><path d="m177.8 827.1 -4 13 7 19 -2 11" fill="none" stroke="#8aa18a" opacity=".28" stroke-width=".8"/><path d="m151.6 820.8 -4 13 7 19 -2 11" fill="none" stroke="#8aa18a" opacity=".28" stroke-width=".8"/><path d="m78.5 871.8 -4 13 7 19 -2 11" fill="none" stroke="#567b6c" opacity=".28" stroke-width=".8"/><path d="m184.4 770.5 -4 13 7 19 -2 11" fill="none" stroke="#567b6c" opacity=".28" stroke-width=".8"/><path d="m11.3 820.0 -4 13 7 19 -2 11" fill="none" stroke="#adba94" opacity=".28" stroke-width=".8"/><path d="m82.4 858.4 -4 13 7 19 -2 11" fill="none" stroke="#adba94" opacity=".28" stroke-width=".8"/><path d="m114.2 739.0 -4 13 7 19 -2 11" fill="none" stroke="#8aa18a" opacity=".28" stroke-width=".8"/><path d="m185.7 824.8 -4 13 7 19 -2 11" fill="none" stroke="#adba94" opacity=".28" stroke-width=".8"/><path d="m120.3 677.7 -4 13 7 19 -2 11" fill="none" stroke="#567b6c" opacity=".28" stroke-width=".8"/><path d="m124.6 771.4 -4 13 7 19 -2 11" fill="none" stroke="#8aa18a" opacity=".28" stroke-width=".8"/><path d="m162.7 881.5 -4 13 7 19 -2 11" fill="none" stroke="#8aa18a" opacity=".28" stroke-width=".8"/><path d="m29.2 671.0 -4 13 7 19 -2 11" fill="none" stroke="#567b6c" opacity=".28" stroke-width=".8"/><path d="m66.2 861.5 -4 13 7 19 -2 11" fill="none" stroke="#adba94" opacity=".28" stroke-width=".8"/><path d="m57.0 824.0 -4 13 7 19 -2 11" fill="none" stroke="#8aa18a" opacity=".28" stroke-width=".8"/><path d="m159.8 881.1 -4 13 7 19 -2 11" fill="none" stroke="#adba94" opacity=".28" stroke-width=".8"/><path d="m31.4 865.9 -4 13 7 19 -2 11" fill="none" stroke="#567b6c" opacity=".28" stroke-width=".8"/><path d="m64.5 692.0 -4 13 7 19 -2 11" fill="none" stroke="#8aa18a" opacity=".28" stroke-width=".8"/><path d="m44.0 664.9 -4 13 7 19 -2 11" fill="none" stroke="#8aa18a" opacity=".28" stroke-width=".8"/><path d="m13.9 674.3 -4 13 7 19 -2 11" fill="none" stroke="#8aa18a" opacity=".28" stroke-width=".8"/><path d="m180.6 837.2 -4 13 7 19 -2 11" fill="none" stroke="#adba94" opacity=".28" stroke-width=".8"/><path d="m88.9 733.7 -4 13 7 19 -2 11" fill="none" stroke="#adba94" opacity=".28" stroke-width=".8"/><path d="m42.7 724.4 -4 13 7 19 -2 11" fill="none" stroke="#567b6c" opacity=".28" stroke-width=".8"/><path d="m103.3 846.0 -4 13 7 19 -2 11" fill="none" stroke="#567b6c" opacity=".28" stroke-width=".8"/><path d="m17.3 656.4 -4 13 7 19 -2 11" fill="none" stroke="#8aa18a" opacity=".28" stroke-width=".8"/><path d="m153.2 698.7 -4 13 7 19 -2 11" fill="none" stroke="#8aa18a" opacity=".28" stroke-width=".8"/><path d="m129.1 679.5 -4 13 7 19 -2 11" fill="none" stroke="#8aa18a" opacity=".28" stroke-width=".8"/><path d="m122.7 754.4 -4 13 7 19 -2 11" fill="none" stroke="#adba94" opacity=".28" stroke-width=".8"/><path d="m42.4 729.8 -4 13 7 19 -2 11" fill="none" stroke="#567b6c" opacity=".28" stroke-width=".8"/><path d="m73.9 871.2 -4 13 7 19 -2 11" fill="none" stroke="#567b6c" opacity=".28" stroke-width=".8"/><path d="m48.8 729.9 -4 13 7 19 -2 11" fill="none" stroke="#adba94" opacity=".28" stroke-width=".8"/><path d="m76.7 773.2 -4 13 7 19 -2 11" fill="none" stroke="#adba94" opacity=".28" stroke-width=".8"/><path d="m19.2 843.7 -4 13 7 19 -2 11" fill="none" stroke="#8aa18a" opacity=".28" stroke-width=".8"/><path d="m101.2 809.8 -4 13 7 19 -2 11" fill="none" stroke="#567b6c" opacity=".28" stroke-width=".8"/><path d="m160.1 736.4 -4 13 7 19 -2 11" fill="none" stroke="#8aa18a" opacity=".28" stroke-width=".8"/><path d="m142.9 670.7 -4 13 7 19 -2 11" fill="none" stroke="#567b6c" opacity=".28" stroke-width=".8"/><path d="m118.9 877.4 -4 13 7 19 -2 11" fill="none" stroke="#adba94" opacity=".28" stroke-width=".8"/><path d="m160.6 659.4 -4 13 7 19 -2 11" fill="none" stroke="#adba94" opacity=".28" stroke-width=".8"/><path d="m153.3 858.8 -4 13 7 19 -2 11" fill="none" stroke="#adba94" opacity=".28" stroke-width=".8"/><path d="m178.6 754.1 -4 13 7 19 -2 11" fill="none" stroke="#adba94" opacity=".28" stroke-width=".8"/><path d="m16.0 841.3 -4 13 7 19 -2 11" fill="none" stroke="#8aa18a" opacity=".28" stroke-width=".8"/><path d="m29.1 725.4 -4 13 7 19 -2 11" fill="none" stroke="#8aa18a" opacity=".28" stroke-width=".8"/><path d="m61.8 674.9 -4 13 7 19 -2 11" fill="none" stroke="#567b6c" opacity=".28" stroke-width=".8"/><path d="m171.9 770.6 -4 13 7 19 -2 11" fill="none" stroke="#8aa18a" opacity=".28" stroke-width=".8"/><path d="m32.3 847.8 -4 13 7 19 -2 11" fill="none" stroke="#567b6c" opacity=".28" stroke-width=".8"/><path d="m42.4 775.0 -4 13 7 19 -2 11" fill="none" stroke="#8aa18a" opacity=".28" stroke-width=".8"/><path d="m171.6 689.8 -4 13 7 19 -2 11" fill="none" stroke="#567b6c" opacity=".28" stroke-width=".8"/><path d="m5.2 653.8 -4 13 7 19 -2 11" fill="none" stroke="#8aa18a" opacity=".28" stroke-width=".8"/><path d="m115.3 803.4 -4 13 7 19 -2 11" fill="none" stroke="#adba94" opacity=".28" stroke-width=".8"/><path d="m94.2 737.3 -4 13 7 19 -2 11" fill="none" stroke="#8aa18a" opacity=".28" stroke-width=".8"/><path d="m89.6 793.6 -4 13 7 19 -2 11" fill="none" stroke="#adba94" opacity=".28" stroke-width=".8"/><path d="m30.4 733.9 -4 13 7 19 -2 11" fill="none" stroke="#567b6c" opacity=".28" stroke-width=".8"/><path d="m74.3 817.2 -4 13 7 19 -2 11" fill="none" stroke="#adba94" opacity=".28" stroke-width=".8"/><path d="m96.3 711.9 -4 13 7 19 -2 11" fill="none" stroke="#8aa18a" opacity=".28" stroke-width=".8"/><path d="m167.2 853.7 -4 13 7 19 -2 11" fill="none" stroke="#567b6c" opacity=".28" stroke-width=".8"/><path d="m73.8 849.4 -4 13 7 19 -2 11" fill="none" stroke="#8aa18a" opacity=".28" stroke-width=".8"/><path d="M148 683Q145 602 211 566Q258 546 293 520M179 603Q137 570 103 580M222 559Q219 519 201 508" fill="none" stroke="#264e43" stroke-width="9"/><path d="M56 571q-8-14 18-18q5-17 27-10q18-19 33 0q26-7 32 12q19 1 17 14q-55 15-127 2Z" fill="#375f55"/><path d="m107.0 562.7 4 -8m-4 8-3-6" stroke="#a0bba6" stroke-width=".9" opacity=".6"/><path d="m78.0 564.9 4 -8m-4 8-3-6" stroke="#a0bba6" stroke-width=".9" opacity=".6"/><path d="m56.4 571.2 4 -8m-4 8-3-6" stroke="#a0bba6" stroke-width=".9" opacity=".6"/><path d="m112.2 570.7 4 -8m-4 8-3-6" stroke="#a0bba6" stroke-width=".9" opacity=".6"/><path d="m109.4 569.2 4 -8m-4 8-3-6" stroke="#a0bba6" stroke-width=".9" opacity=".6"/><path d="m116.3 559.6 4 -8m-4 8-3-6" stroke="#a0bba6" stroke-width=".9" opacity=".6"/><path d="m115.8 562.9 4 -8m-4 8-3-6" stroke="#a0bba6" stroke-width=".9" opacity=".6"/><path d="m116.1 559.5 4 -8m-4 8-3-6" stroke="#a0bba6" stroke-width=".9" opacity=".6"/><path d="m124.4 564.2 4 -8m-4 8-3-6" stroke="#a0bba6" stroke-width=".9" opacity=".6"/><path d="m65.6 567.7 4 -8m-4 8-3-6" stroke="#a0bba6" stroke-width=".9" opacity=".6"/><path d="m111.2 558.3 4 -8m-4 8-3-6" stroke="#a0bba6" stroke-width=".9" opacity=".6"/><path d="m81.2 562.8 4 -8m-4 8-3-6" stroke="#a0bba6" stroke-width=".9" opacity=".6"/><path d="m65.8 565.6 4 -8m-4 8-3-6" stroke="#a0bba6" stroke-width=".9" opacity=".6"/><path d="m95.8 555.2 4 -8m-4 8-3-6" stroke="#a0bba6" stroke-width=".9" opacity=".6"/><path d="m108.3 561.1 4 -8m-4 8-3-6" stroke="#a0bba6" stroke-width=".9" opacity=".6"/><path d="m131.8 563.1 4 -8m-4 8-3-6" stroke="#a0bba6" stroke-width=".9" opacity=".6"/><path d="m156.7 563.5 4 -8m-4 8-3-6" stroke="#a0bba6" stroke-width=".9" opacity=".6"/><path d="m135.0 569.2 4 -8m-4 8-3-6" stroke="#a0bba6" stroke-width=".9" opacity=".6"/><path d="m134.5 562.3 4 -8m-4 8-3-6" stroke="#a0bba6" stroke-width=".9" opacity=".6"/><path d="m149.9 569.9 4 -8m-4 8-3-6" stroke="#a0bba6" stroke-width=".9" opacity=".6"/><path d="M142 517q-8-14 18-18q5-17 27-10q18-19 33 0q26-7 32 12q19 1 17 14q-55 15-127 2Z" fill="#375f55"/><path d="m211.6 505.0 4 -8m-4 8-3-6" stroke="#a0bba6" stroke-width=".9" opacity=".6"/><path d="m215.5 514.6 4 -8m-4 8-3-6" stroke="#a0bba6" stroke-width=".9" opacity=".6"/><path d="m167.0 512.0 4 -8m-4 8-3-6" stroke="#a0bba6" stroke-width=".9" opacity=".6"/><path d="m199.5 511.3 4 -8m-4 8-3-6" stroke="#a0bba6" stroke-width=".9" opacity=".6"/><path d="m184.3 504.6 4 -8m-4 8-3-6" stroke="#a0bba6" stroke-width=".9" opacity=".6"/><path d="m148.2 502.6 4 -8m-4 8-3-6" stroke="#a0bba6" stroke-width=".9" opacity=".6"/><path d="m155.4 504.9 4 -8m-4 8-3-6" stroke="#a0bba6" stroke-width=".9" opacity=".6"/><path d="m218.6 517.1 4 -8m-4 8-3-6" stroke="#a0bba6" stroke-width=".9" opacity=".6"/><path d="m222.5 515.1 4 -8m-4 8-3-6" stroke="#a0bba6" stroke-width=".9" opacity=".6"/><path d="m206.2 510.6 4 -8m-4 8-3-6" stroke="#a0bba6" stroke-width=".9" opacity=".6"/><path d="m188.2 511.3 4 -8m-4 8-3-6" stroke="#a0bba6" stroke-width=".9" opacity=".6"/><path d="m227.8 503.2 4 -8m-4 8-3-6" stroke="#a0bba6" stroke-width=".9" opacity=".6"/><path d="m165.1 517.2 4 -8m-4 8-3-6" stroke="#a0bba6" stroke-width=".9" opacity=".6"/><path d="m215.3 513.3 4 -8m-4 8-3-6" stroke="#a0bba6" stroke-width=".9" opacity=".6"/><path d="m204.4 503.5 4 -8m-4 8-3-6" stroke="#a0bba6" stroke-width=".9" opacity=".6"/><path d="m214.8 509.3 4 -8m-4 8-3-6" stroke="#a0bba6" stroke-width=".9" opacity=".6"/><path d="m179.3 512.3 4 -8m-4 8-3-6" stroke="#a0bba6" stroke-width=".9" opacity=".6"/><path d="m197.9 507.4 4 -8m-4 8-3-6" stroke="#a0bba6" stroke-width=".9" opacity=".6"/><path d="m182.0 517.5 4 -8m-4 8-3-6" stroke="#a0bba6" stroke-width=".9" opacity=".6"/><path d="m178.3 501.9 4 -8m-4 8-3-6" stroke="#a0bba6" stroke-width=".9" opacity=".6"/><path d="M181 536q-8-14 18-18q5-17 27-10q18-19 33 0q26-7 32 12q19 1 17 14q-55 15-127 2Z" fill="#375f55"/><path d="m252.4 536.2 4 -8m-4 8-3-6" stroke="#a0bba6" stroke-width=".9" opacity=".6"/><path d="m181.8 525.1 4 -8m-4 8-3-6" stroke="#a0bba6" stroke-width=".9" opacity=".6"/><path d="m239.4 536.2 4 -8m-4 8-3-6" stroke="#a0bba6" stroke-width=".9" opacity=".6"/><path d="m231.9 520.7 4 -8m-4 8-3-6" stroke="#a0bba6" stroke-width=".9" opacity=".6"/><path d="m261.5 535.4 4 -8m-4 8-3-6" stroke="#a0bba6" stroke-width=".9" opacity=".6"/><path d="m257.0 536.7 4 -8m-4 8-3-6" stroke="#a0bba6" stroke-width=".9" opacity=".6"/><path d="m278.4 531.0 4 -8m-4 8-3-6" stroke="#a0bba6" stroke-width=".9" opacity=".6"/><path d="m234.4 525.3 4 -8m-4 8-3-6" stroke="#a0bba6" stroke-width=".9" opacity=".6"/><path d="m192.4 532.5 4 -8m-4 8-3-6" stroke="#a0bba6" stroke-width=".9" opacity=".6"/><path d="m262.5 535.4 4 -8m-4 8-3-6" stroke="#a0bba6" stroke-width=".9" opacity=".6"/><path d="m247.5 526.0 4 -8m-4 8-3-6" stroke="#a0bba6" stroke-width=".9" opacity=".6"/><path d="m268.8 533.7 4 -8m-4 8-3-6" stroke="#a0bba6" stroke-width=".9" opacity=".6"/><path d="m210.9 524.7 4 -8m-4 8-3-6" stroke="#a0bba6" stroke-width=".9" opacity=".6"/><path d="m234.8 528.5 4 -8m-4 8-3-6" stroke="#a0bba6" stroke-width=".9" opacity=".6"/><path d="m224.9 535.4 4 -8m-4 8-3-6" stroke="#a0bba6" stroke-width=".9" opacity=".6"/><path d="m211.1 526.0 4 -8m-4 8-3-6" stroke="#a0bba6" stroke-width=".9" opacity=".6"/><path d="m226.1 530.5 4 -8m-4 8-3-6" stroke="#a0bba6" stroke-width=".9" opacity=".6"/><path d="m254.7 527.3 4 -8m-4 8-3-6" stroke="#a0bba6" stroke-width=".9" opacity=".6"/><path d="m266.0 524.3 4 -8m-4 8-3-6" stroke="#a0bba6" stroke-width=".9" opacity=".6"/><path d="m255.6 527.2 4 -8m-4 8-3-6" stroke="#a0bba6" stroke-width=".9" opacity=".6"/><path d="M229 511q-8-14 18-18q5-17 27-10q18-19 33 0q26-7 32 12q19 1 17 14q-55 15-127 2Z" fill="#375f55"/><path d="m253.4 496.5 4 -8m-4 8-3-6" stroke="#a0bba6" stroke-width=".9" opacity=".6"/><path d="m229.6 496.3 4 -8m-4 8-3-6" stroke="#a0bba6" stroke-width=".9" opacity=".6"/><path d="m273.6 499.0 4 -8m-4 8-3-6" stroke="#a0bba6" stroke-width=".9" opacity=".6"/><path d="m261.9 510.7 4 -8m-4 8-3-6" stroke="#a0bba6" stroke-width=".9" opacity=".6"/><path d="m266.0 509.0 4 -8m-4 8-3-6" stroke="#a0bba6" stroke-width=".9" opacity=".6"/><path d="m294.8 507.5 4 -8m-4 8-3-6" stroke="#a0bba6" stroke-width=".9" opacity=".6"/><path d="m305.0 509.9 4 -8m-4 8-3-6" stroke="#a0bba6" stroke-width=".9" opacity=".6"/><path d="m233.9 510.0 4 -8m-4 8-3-6" stroke="#a0bba6" stroke-width=".9" opacity=".6"/><path d="m238.7 497.0 4 -8m-4 8-3-6" stroke="#a0bba6" stroke-width=".9" opacity=".6"/><path d="m311.8 497.1 4 -8m-4 8-3-6" stroke="#a0bba6" stroke-width=".9" opacity=".6"/><path d="m254.3 496.9 4 -8m-4 8-3-6" stroke="#a0bba6" stroke-width=".9" opacity=".6"/><path d="m337.9 504.4 4 -8m-4 8-3-6" stroke="#a0bba6" stroke-width=".9" opacity=".6"/><path d="m282.2 500.3 4 -8m-4 8-3-6" stroke="#a0bba6" stroke-width=".9" opacity=".6"/><path d="m276.3 509.7 4 -8m-4 8-3-6" stroke="#a0bba6" stroke-width=".9" opacity=".6"/><path d="m346.7 503.7 4 -8m-4 8-3-6" stroke="#a0bba6" stroke-width=".9" opacity=".6"/><path d="m261.3 510.5 4 -8m-4 8-3-6" stroke="#a0bba6" stroke-width=".9" opacity=".6"/><path d="m336.1 509.6 4 -8m-4 8-3-6" stroke="#a0bba6" stroke-width=".9" opacity=".6"/><path d="m326.3 499.8 4 -8m-4 8-3-6" stroke="#a0bba6" stroke-width=".9" opacity=".6"/><path d="m298.9 497.0 4 -8m-4 8-3-6" stroke="#a0bba6" stroke-width=".9" opacity=".6"/><path d="m239.8 504.4 4 -8m-4 8-3-6" stroke="#a0bba6" stroke-width=".9" opacity=".6"/><path d="M220 504q-8-14 18-18q5-17 27-10q18-19 33 0q26-7 32 12q19 1 17 14q-55 15-127 2Z" fill="#375f55"/><path d="m272.9 495.1 4 -8m-4 8-3-6" stroke="#a0bba6" stroke-width=".9" opacity=".6"/><path d="m258.1 495.2 4 -8m-4 8-3-6" stroke="#a0bba6" stroke-width=".9" opacity=".6"/><path d="m277.8 503.6 4 -8m-4 8-3-6" stroke="#a0bba6" stroke-width=".9" opacity=".6"/><path d="m245.9 492.8 4 -8m-4 8-3-6" stroke="#a0bba6" stroke-width=".9" opacity=".6"/><path d="m240.2 500.1 4 -8m-4 8-3-6" stroke="#a0bba6" stroke-width=".9" opacity=".6"/><path d="m269.3 501.7 4 -8m-4 8-3-6" stroke="#a0bba6" stroke-width=".9" opacity=".6"/><path d="m291.1 490.5 4 -8m-4 8-3-6" stroke="#a0bba6" stroke-width=".9" opacity=".6"/><path d="m285.7 496.5 4 -8m-4 8-3-6" stroke="#a0bba6" stroke-width=".9" opacity=".6"/><path d="m238.1 497.4 4 -8m-4 8-3-6" stroke="#a0bba6" stroke-width=".9" opacity=".6"/><path d="m242.6 491.9 4 -8m-4 8-3-6" stroke="#a0bba6" stroke-width=".9" opacity=".6"/><path d="m273.2 492.9 4 -8m-4 8-3-6" stroke="#a0bba6" stroke-width=".9" opacity=".6"/><path d="m240.4 501.9 4 -8m-4 8-3-6" stroke="#a0bba6" stroke-width=".9" opacity=".6"/><path d="m283.4 504.0 4 -8m-4 8-3-6" stroke="#a0bba6" stroke-width=".9" opacity=".6"/><path d="m267.5 489.8 4 -8m-4 8-3-6" stroke="#a0bba6" stroke-width=".9" opacity=".6"/><path d="m255.1 496.8 4 -8m-4 8-3-6" stroke="#a0bba6" stroke-width=".9" opacity=".6"/><path d="m240.3 498.3 4 -8m-4 8-3-6" stroke="#a0bba6" stroke-width=".9" opacity=".6"/><path d="m229.9 497.4 4 -8m-4 8-3-6" stroke="#a0bba6" stroke-width=".9" opacity=".6"/><path d="m287.3 498.9 4 -8m-4 8-3-6" stroke="#a0bba6" stroke-width=".9" opacity=".6"/><path d="m259.1 500.0 4 -8m-4 8-3-6" stroke="#a0bba6" stroke-width=".9" opacity=".6"/><path d="m237.5 498.5 4 -8m-4 8-3-6" stroke="#a0bba6" stroke-width=".9" opacity=".6"/><path d="m248 737 68-14 75 14-56 20-78-3Z" fill="#82977b"/><path d="m257 754 78 3 56-20-8 14-48 20-70-7Z" fill="#3c5a4b"/><g transform="translate(320 725)"><ellipse cy="9" rx="25" ry="5" fill="#304a40"/><path d="m-7-55-13 20-7 44 22-8 7-16 7 17 14 3-12-45-9-15Z" fill="#d9dfc8" stroke="#33594e" stroke-width="2"/><path d="m3-54 9 16 12 43-11-1L-1-29Z" fill="#4c7c70"/><path d="m-7-51-9 23-13 8 5 6 21-13m8-21 17 18 9 21-5 2-15-15" fill="#85a693" stroke="#33594e" stroke-width="2"/><path d="m-13-25 24 1" stroke="#bcaa70" stroke-width="3"/><path d="m7-22 8 25" stroke="#b6a36a" stroke-width="2"/><ellipse cy="-65" rx="8" ry="10" fill="#e5dabe"/><path d="M-8-65Q-12-81 0-79q13 1 8 17l-4-10-8 2Z" fill="#27483f"/><circle cy="-82" r="4" fill="#27483f"/><path d="m-7-77 14 0m-13 4-17 6-14-3" fill="none" stroke="#b6ad7b" stroke-width="2"/><path d="m26-18 21 52 2 9-6-7-21-52Z" fill="#d6e1cc" stroke="#37594e"/><path d="m19-12 12-5" stroke="#b6a36a" stroke-width="3"/></g>
<g fill="none" stroke="#53756a" stroke-width="1.4"><path d="m246 192 7-3 6 3m18 17 6-3 6 2m-57 8 5-2 5 2"/></g><path d="M27 29h546v842H27Z" fill="none" stroke="#d1c69a" opacity=".6"/><path d="M36 38h528v824H36Z" fill="none" stroke="#d1c69a" opacity=".25"/></g></svg>